<?xml version="1.0" encoding="UTF-8"?>
<!DOCTYPE svg PUBLIC "-//W3C//DTD SVG 1.1//EN" "http://www.w3.org/Graphics/SVG/1.1/DTD/svg11.dtd">
<!-- Creator: CorelDRAW -->
<svg xmlns="http://www.w3.org/2000/svg" xml:space="preserve" width="2048px" height="2048px" style="shape-rendering:geometricPrecision; text-rendering:geometricPrecision; image-rendering:optimizeQuality; fill-rule:evenodd; clip-rule:evenodd"
viewBox="0 0 2048 2048"
 xmlns:xlink="http://www.w3.org/1999/xlink">
 <defs>
  <style type="text/css">
   <![CDATA[
    .fil2 {fill:none}
    .fil12 {fill:#00E676}
    .fil16 {fill:#03A9F4}
    .fil19 {fill:#37474F}
    .fil18 {fill:#3949AB}
    .fil6 {fill:#3E2723}
    .fil17 {fill:#4CAF50}
    .fil11 {fill:#546E7A}
    .fil15 {fill:#AB47BC}
    .fil1 {fill:#C5E1A5}
    .fil0 {fill:#DCEDC8}
    .fil14 {fill:#E53935}
    .fil4 {fill:#FF8F00}
    .fil5 {fill:#FFA000}
    .fil13 {fill:#FFD600}
    .fil9 {fill:#455A64;fill-rule:nonzero}
    .fil10 {fill:#78909C;fill-rule:nonzero}
    .fil8 {fill:#90A4AE;fill-rule:nonzero}
    .fil3 {fill:#DB640A;fill-rule:nonzero}
    .fil7 {fill:#FF8F00;fill-rule:nonzero}
   ]]>
  </style>
   <clipPath id="id0">
    <path d="M1024 -0.0011811c565.539,0 1024,458.462 1024,1024 0,565.539 -458.462,1024 -1024,1024 -565.539,0 -1024,-458.462 -1024,-1024 0,-565.539 458.462,-1024 1024,-1024z"/>
   </clipPath>
 </defs>
 <g id="Layer_x0020_1">
  <metadata id="CorelCorpID_0Corel-Layer"/>
  <path class="fil0" d="M1024 -0.0011811c565.539,0 1024,458.462 1024,1024 0,565.539 -458.462,1024 -1024,1024 -565.539,0 -1024,-458.462 -1024,-1024 0,-565.539 458.462,-1024 1024,-1024z"/>
  <g style="clip-path:url(#id0)">
   <g id="_289347056">
    <g>
     <polygon id="_2909658001" class="fil1" points="1206.94,547.608 2342.82,1683.49 2346.57,1687.93 2350.21,1692.45 2353.75,1697.07 2357.18,1701.77 2360.5,1706.55 2363.7,1711.42 2366.79,1716.37 2369.76,1721.39 2372.62,1726.5 2375.35,1731.68 2377.96,1736.93 2380.44,1742.25 2382.8,1747.65 2385.03,1753.11 2387.13,1758.63 2389.1,1764.22 2390.94,1769.87 2392.64,1775.59 2394.2,1781.36 2395.62,1787.18 2396.9,1793.06 2398.04,1798.99 2399.03,1804.97 2399.87,1811 2400.57,1817.08 2401.11,1823.2 2401.5,1829.37 2401.74,1835.57 2401.82,1841.82 1265.93,705.935 1265.86,699.69 1265.62,693.485 1265.23,687.321 1264.69,681.199 1263.99,675.122 1263.15,669.091 1262.16,663.109 1261.02,657.178 1259.74,651.298 1258.32,645.473 1256.76,639.704 1255.06,633.993 1253.22,628.341 1251.25,622.752 1249.15,617.226 1246.92,611.765 1244.56,606.373 1242.08,601.048 1239.47,595.796 1236.73,590.617 1233.88,585.512 1230.91,580.485 1227.82,575.536 1224.62,570.669 1221.3,565.884 1217.87,561.184 1214.33,556.569 1210.69,552.044 "/>
     <polygon id="_290966280" class="fil1" points="1265.93,705.935 2401.82,1841.82 2401.81,1843.84 2401.78,1845.86 2401.74,1847.87 2401.68,1849.88 2401.61,1851.89 2401.52,1853.9 2401.41,1855.9 2401.28,1857.89 2401.14,1859.89 2400.99,1861.87 2400.82,1863.86 2400.63,1865.84 2400.42,1867.81 2400.2,1869.79 2399.97,1871.75 2399.71,1873.72 2399.44,1875.68 2399.16,1877.63 2398.86,1879.58 2398.55,1881.52 2398.22,1883.47 2397.87,1885.4 2397.51,1887.33 2397.13,1889.26 2396.74,1891.18 2396.34,1893.09 2395.91,1895 2395.48,1896.91 2395.03,1898.81 2394.56,1900.7 2394.08,1902.59 2393.58,1904.48 1257.7,768.595 1258.2,766.711 1258.68,764.821 1259.14,762.927 1259.6,761.026 1260.03,759.121 1260.45,757.211 1260.86,755.295 1261.25,753.375 1261.63,751.449 1261.99,749.519 1262.34,747.583 1262.67,745.642 1262.98,743.698 1263.28,741.748 1263.56,739.793 1263.83,737.835 1264.08,735.872 1264.32,733.905 1264.54,731.932 1264.75,729.956 1264.93,727.977 1265.11,725.992 1265.26,724.003 1265.4,722.011 1265.53,720.015 1265.63,718.014 1265.73,716.01 1265.8,714.002 1265.86,711.99 1265.9,709.975 1265.93,707.957 "/>
     <polygon id="_290966232" class="fil1" points="1257.7,768.595 2393.58,1904.48 2393.06,1906.4 2392.52,1908.33 2391.96,1910.24 2391.39,1912.15 2390.8,1914.05 2390.2,1915.95 2389.58,1917.84 2388.95,1919.72 2388.3,1921.6 2387.64,1923.47 2386.96,1925.33 2386.27,1927.19 2385.56,1929.04 2384.84,1930.88 2384.1,1932.72 2383.35,1934.55 2382.58,1936.37 2381.8,1938.18 2381,1939.99 2380.19,1941.79 2379.37,1943.58 2378.53,1945.36 2377.68,1947.14 2376.81,1948.91 2375.93,1950.67 2375.04,1952.42 2374.13,1954.17 2373.21,1955.91 2372.27,1957.64 2371.32,1959.36 2370.36,1961.07 2369.38,1962.78 1233.5,826.893 1234.47,825.188 1235.44,823.475 1236.39,821.754 1237.32,820.023 1238.25,818.286 1239.16,816.542 1240.05,814.788 1240.93,813.027 1241.8,811.257 1242.65,809.481 1243.49,807.696 1244.31,805.905 1245.12,804.106 1245.92,802.299 1246.7,800.484 1247.47,798.663 1248.22,796.835 1248.96,794.999 1249.68,793.157 1250.39,791.307 1251.08,789.451 1251.76,787.587 1252.42,785.717 1253.07,783.84 1253.7,781.957 1254.32,780.067 1254.92,778.171 1255.51,776.268 1256.08,774.358 1256.64,772.444 1257.18,770.522 "/>
     <polygon id="_290966448" class="fil1" points="1233.55,826.92 2369.43,1962.8 2368.57,1964.18 2367.63,1965.48 2366.61,1966.7 2365.52,1967.83 2364.38,1968.88 2363.17,1969.84 2361.91,1970.71 2360.59,1971.5 2359.24,1972.2 2357.84,1972.8 2356.41,1973.32 2354.95,1973.74 2353.47,1974.06 2351.97,1974.29 2350.45,1974.42 2348.92,1974.45 1213.04,838.57 1214.57,838.538 1216.09,838.409 1217.59,838.181 1219.07,837.856 1220.53,837.435 1221.96,836.922 1223.36,836.316 1224.71,835.619 1226.02,834.832 1227.29,833.956 1228.5,832.993 1229.64,831.946 1230.73,830.813 1231.74,829.596 1232.68,828.298 "/>
     <polygon id="_290967216" class="fil1" points="1213.04,838.57 2348.92,1974.45 2253.22,1974.45 1117.33,838.57 "/>
     <polygon id="_290967120" class="fil1" points="1117.33,838.57 2253.22,1974.45 2253.22,2017.96 1117.33,882.075 "/>
     <polygon id="_290966880" class="fil1" points="1301.74,889.838 2437.62,2025.72 2438.63,2026.94 2439.57,2028.23 2440.43,2029.61 1304.55,893.725 1303.69,892.35 1302.75,891.053 "/>
     <polygon id="_290966712" class="fil1" points="1304.55,893.725 2440.43,2029.61 2440.39,2029.64 1304.5,893.754 "/>
     <polygon id="_290966496" class="fil1" points="1304.5,893.754 2440.39,2029.64 2440.88,2030.49 2441.37,2031.34 2441.85,2032.2 2442.34,2033.05 2442.82,2033.91 2443.3,2034.77 2443.77,2035.64 2444.24,2036.5 2444.72,2037.36 2445.18,2038.23 2445.65,2039.1 2446.11,2039.97 2446.57,2040.84 2447.03,2041.71 2447.49,2042.58 2447.94,2043.46 1312.06,907.576 1311.61,906.701 1311.15,905.827 1310.69,904.954 1310.23,904.084 1309.77,903.214 1309.3,902.346 1308.83,901.481 1308.36,900.616 1307.89,899.753 1307.41,898.892 1306.94,898.031 1306.45,897.172 1305.97,896.316 1305.49,895.461 1305,894.607 "/>
     <polygon id="_290966976" class="fil1" points="1411.96,923.148 2547.84,2059.03 2549.83,2061.34 2551.58,2063.86 2553.11,2066.61 2554.43,2069.59 2555.54,2072.81 2556.47,2076.29 2557.23,2080.03 2557.82,2084.04 2558.27,2088.33 2558.58,2092.91 2558.77,2097.8 2558.85,2102.99 2558.83,2108.5 1422.95,972.615 1422.97,967.104 1422.89,961.913 1422.7,957.03 1422.39,952.448 1421.94,948.155 1421.35,944.146 1420.59,940.406 1419.66,936.929 1418.55,933.706 1417.23,930.725 1415.7,927.977 1413.95,925.455 "/>
     <polygon id="_290967096" class="fil1" points="1372.38,970.918 2508.26,2106.8 2507.14,2105.9 2505.84,2105.15 2504.35,2104.53 2502.65,2104.04 2500.73,2103.66 2498.58,2103.38 2496.19,2103.19 2493.54,2103.07 2490.62,2103.01 2487.42,2103.01 2483.93,2103.05 2480.13,2103.11 2476.01,2103.18 2471.56,2103.26 1335.68,967.374 1340.13,967.299 1344.24,967.224 1348.04,967.163 1351.54,967.129 1354.74,967.132 1357.66,967.187 1360.31,967.303 1362.7,967.495 1364.85,967.775 1366.77,968.155 1368.47,968.646 1369.96,969.263 1371.26,970.015 "/>
     <polygon id="_290966616" class="fil1" points="930.666,838.57 2066.55,1974.45 1970.53,1974.45 834.65,838.57 "/>
     <polygon id="_290966664" class="fil1" points="1335.68,967.374 2471.56,2103.26 2471.72,2103.81 2471.87,2104.36 2472.02,2104.91 2472.18,2105.47 2472.33,2106.02 2472.48,2106.57 2472.63,2107.13 2472.78,2107.68 1336.9,971.798 1336.75,971.244 1336.6,970.69 1336.45,970.136 1336.3,969.583 1336.14,969.03 1335.99,968.478 1335.83,967.926 "/>
     <polygon id="_290966760" class="fil1" points="1336.9,971.798 2472.78,2107.68 2473.44,2110.2 2474.09,2112.73 2474.71,2115.26 2475.31,2117.8 2475.9,2120.35 2476.46,2122.91 2477.01,2125.47 2477.53,2128.04 2478.03,2130.62 2478.52,2133.2 2478.98,2135.79 2479.42,2138.39 2479.84,2141 2480.24,2143.61 2480.62,2146.22 2480.98,2148.84 2481.32,2151.47 2481.63,2154.11 2481.93,2156.75 2482.2,2159.4 2482.45,2162.05 2482.68,2164.71 2482.89,2167.37 2483.08,2170.04 2483.25,2172.71 2483.39,2175.39 2483.51,2178.08 2483.61,2180.77 2483.69,2183.46 2483.75,2186.16 2483.78,2188.87 2483.79,2191.58 1347.91,1055.7 1347.9,1052.99 1347.87,1050.28 1347.81,1047.58 1347.73,1044.89 1347.63,1042.2 1347.51,1039.51 1347.37,1036.83 1347.2,1034.16 1347.01,1031.49 1346.8,1028.82 1346.57,1026.16 1346.32,1023.51 1346.05,1020.87 1345.75,1018.23 1345.43,1015.59 1345.1,1012.96 1344.74,1010.34 1344.36,1007.72 1343.96,1005.11 1343.54,1002.51 1343.1,999.913 1342.63,997.321 1342.15,994.738 1341.65,992.161 1341.13,989.591 1340.58,987.027 1340.02,984.471 1339.43,981.922 1338.83,979.379 1338.2,976.844 1337.56,974.317 "/>
     <polygon id="_290967360" class="fil1" points="834.65,838.57 1970.53,1974.45 1968.81,1974.39 1967.12,1974.21 1965.47,1973.9 1963.87,1973.49 1962.31,1972.96 1960.8,1972.33 1959.35,1971.6 1957.95,1970.78 1956.63,1969.86 1955.37,1968.85 1954.18,1967.76 818.299,831.882 819.485,832.971 820.745,833.976 822.073,834.894 823.465,835.719 824.918,836.449 826.426,837.08 827.985,837.604 829.593,838.021 831.242,838.323 832.929,838.508 "/>
     <polygon id="_290967792" class="fil1" points="1347.91,1055.7 2483.79,2191.58 2483.69,2199.94 2483.37,2208.25 2482.85,2216.5 2482.12,2224.7 2481.19,2232.83 2480.06,2240.91 2478.73,2248.92 2477.21,2256.86 2475.5,2264.73 2473.59,2272.53 2471.5,2280.25 2469.23,2287.9 2466.77,2295.46 2464.14,2302.95 2461.32,2310.35 2458.34,2317.66 2455.18,2324.88 2451.85,2332.01 2448.36,2339.04 2444.7,2345.97 2440.88,2352.8 2436.9,2359.54 2432.76,2366.16 2428.47,2372.68 2424.03,2379.08 2419.44,2385.38 2414.7,2391.56 2409.82,2397.61 2404.8,2403.55 2399.64,2409.37 2394.35,2415.06 2388.92,2420.62 1253.04,1284.73 1258.47,1279.17 1263.76,1273.49 1268.92,1267.67 1273.94,1261.73 1278.82,1255.67 1283.56,1249.5 1288.15,1243.2 1292.59,1236.8 1296.88,1230.28 1301.02,1223.65 1305,1216.92 1308.81,1210.09 1312.47,1203.16 1315.97,1196.12 1319.3,1189 1322.46,1181.78 1325.44,1174.46 1328.25,1167.07 1330.89,1159.58 1333.35,1152.02 1335.62,1144.37 1337.71,1136.65 1339.62,1128.85 1341.33,1120.97 1342.85,1113.03 1344.18,1105.02 1345.31,1096.95 1346.24,1088.81 1346.97,1080.62 1347.49,1072.36 1347.8,1064.06 "/>
     <polygon id="_290967864" class="fil1" points="1253.04,1284.73 2388.92,2420.62 2386.93,2422.59 2384.92,2424.54 2382.9,2426.48 2380.86,2428.4 2378.81,2430.3 2376.73,2432.19 2374.65,2434.06 2372.54,2435.91 2370.42,2437.74 2368.28,2439.55 2366.13,2441.35 2363.96,2443.12 2361.78,2444.88 2359.58,2446.62 2357.37,2448.34 2355.14,2450.04 2352.89,2451.73 2350.63,2453.39 2348.36,2455.04 2346.07,2456.66 2343.76,2458.27 2341.44,2459.86 2339.11,2461.42 2336.76,2462.97 2334.4,2464.5 2332.03,2466.01 2329.64,2467.49 2327.23,2468.96 2324.82,2470.41 2322.39,2471.84 2319.94,2473.24 2317.48,2474.63 1181.6,1338.74 1184.06,1337.36 1186.5,1335.95 1188.94,1334.53 1191.35,1333.08 1193.76,1331.61 1196.14,1330.12 1198.52,1328.62 1200.88,1327.09 1203.23,1325.54 1205.56,1323.97 1207.88,1322.39 1210.19,1320.78 1212.47,1319.15 1214.75,1317.51 1217.01,1315.84 1219.25,1314.16 1221.48,1312.46 1223.7,1310.74 1225.9,1309 1228.08,1307.24 1230.25,1305.46 1232.4,1303.67 1234.54,1301.85 1236.66,1300.02 1238.76,1298.17 1240.85,1296.31 1242.92,1294.42 1244.98,1292.52 1247.02,1290.6 1249.04,1288.66 1251.05,1286.71 "/>
     <polygon id="_290967720" class="fil1" points="712.321,967.374 1848.2,2103.26 1843.75,2103.18 1839.64,2103.11 1835.84,2103.05 1832.34,2103.01 1829.14,2103.01 1826.23,2103.07 1823.58,2103.19 1821.18,2103.38 1819.03,2103.66 1817.11,2104.04 1815.41,2104.53 1813.92,2105.15 1812.62,2105.9 1811.5,2106.8 1810.55,2107.86 1809.76,2109.1 1809.11,2110.52 1808.6,2112.15 1808.2,2113.98 1807.91,2116.03 1807.72,2118.32 1807.6,2120.86 1807.56,2123.66 1807.58,2126.73 1807.63,2130.09 1807.73,2133.74 1807.84,2137.7 1807.96,2141.98 1808.07,2146.6 1808.17,2151.56 1808.24,2156.88 1808.26,2162.57 672.381,1026.69 672.356,1021 672.289,1015.68 672.191,1010.72 672.077,1006.1 671.958,1001.82 671.846,997.856 671.754,994.204 671.695,990.849 671.68,987.778 671.723,984.98 671.836,982.442 672.03,980.152 672.319,978.096 672.716,976.263 673.232,974.642 673.88,973.218 674.672,971.981 675.621,970.918 676.738,970.015 678.037,969.263 679.531,968.646 681.231,968.155 683.15,967.775 685.3,967.495 687.694,967.303 690.344,967.187 693.263,967.132 696.462,967.129 699.956,967.163 703.756,967.224 707.873,967.299 "/>
     <polygon id="_290967552" class="fil1" points="672.381,1026.69 1808.26,2162.57 1808.25,2169.45 1808.23,2176.35 1808.18,2183.26 1808.11,2190.18 1808.03,2197.12 1807.93,2204.08 1807.82,2211.04 1807.68,2218.02 1807.53,2225 1807.37,2232 1807.18,2239 1806.99,2246.02 1806.77,2253.03 1806.54,2260.06 1806.3,2267.09 1806.04,2274.12 1805.76,2281.16 1805.47,2288.19 1805.17,2295.23 1804.85,2302.27 1804.53,2309.31 1804.18,2316.35 1803.82,2323.38 1803.46,2330.41 1803.07,2337.44 1802.68,2344.46 1802.27,2351.47 1801.86,2358.48 1801.43,2365.48 1800.99,2372.46 1800.54,2379.44 1800.07,2386.41 664.192,1250.53 664.654,1243.56 665.105,1236.58 665.546,1229.59 665.976,1222.59 666.393,1215.59 666.799,1208.57 667.192,1201.55 667.575,1194.53 667.943,1187.5 668.3,1180.46 668.644,1173.43 668.973,1166.39 669.29,1159.35 669.592,1152.31 669.882,1145.27 670.156,1138.24 670.415,1131.2 670.66,1124.18 670.89,1117.15 671.104,1110.13 671.302,1103.12 671.486,1096.12 671.652,1089.12 671.802,1082.13 671.936,1075.16 672.052,1068.19 672.152,1061.24 672.233,1054.3 672.297,1047.38 672.344,1040.46 672.371,1033.57 "/>
     <polygon id="_290967840" class="fil1" points="1119.15,1365.41 2255.03,2501.29 2252.2,2502.14 2249.37,2502.97 2246.52,2503.77 2243.66,2504.55 2240.79,2505.3 2237.91,2506.03 2235.02,2506.73 2232.12,2507.4 2229.22,2508.05 2226.3,2508.67 2223.37,2509.27 2220.43,2509.84 2217.48,2510.38 2214.53,2510.9 2211.56,2511.39 2208.59,2511.85 2205.61,2512.29 2202.61,2512.7 2199.61,2513.08 2196.6,2513.43 2193.59,2513.76 2190.56,2514.06 2187.53,2514.33 2184.48,2514.57 2181.44,2514.78 2178.38,2514.97 2175.31,2515.13 2172.24,2515.26 2169.16,2515.36 2166.08,2515.43 2162.98,2515.48 2159.88,2515.49 1024,1379.61 1027.1,1379.59 1030.19,1379.55 1033.28,1379.48 1036.36,1379.38 1039.43,1379.25 1042.5,1379.09 1045.56,1378.9 1048.6,1378.69 1051.65,1378.44 1054.68,1378.17 1057.71,1377.88 1060.72,1377.55 1063.73,1377.19 1066.73,1376.81 1069.72,1376.4 1072.71,1375.97 1075.68,1375.51 1078.65,1375.02 1081.6,1374.5 1084.55,1373.96 1087.49,1373.39 1090.42,1372.79 1093.33,1372.17 1096.24,1371.52 1099.14,1370.85 1102.03,1370.15 1104.91,1369.42 1107.78,1368.67 1110.64,1367.89 1113.48,1367.09 1116.32,1366.26 "/>
     <polygon id="_290967600" class="fil1" points="1024,1379.61 2159.88,2515.49 2156.78,2515.48 2153.69,2515.43 2150.6,2515.36 2147.52,2515.26 2144.45,2515.13 2141.38,2514.97 2138.33,2514.78 2135.28,2514.57 2132.24,2514.33 2129.2,2514.06 2126.18,2513.76 2123.16,2513.43 2120.15,2513.08 2117.15,2512.7 2114.16,2512.29 2111.17,2511.85 2108.2,2511.39 2105.23,2510.9 2102.28,2510.38 2099.33,2509.84 2096.39,2509.27 2093.46,2508.67 2090.55,2508.05 2087.64,2507.4 2084.74,2506.73 2081.85,2506.03 2078.97,2505.3 2076.1,2504.55 2073.24,2503.77 2070.4,2502.97 2067.56,2502.14 2064.73,2501.29 928.853,1365.41 931.679,1366.26 934.516,1367.09 937.363,1367.89 940.221,1368.67 943.09,1369.42 945.968,1370.14 948.857,1370.85 951.755,1371.52 954.665,1372.17 957.583,1372.79 960.511,1373.39 963.448,1373.96 966.396,1374.5 969.353,1375.02 972.317,1375.51 975.292,1375.97 978.275,1376.4 981.268,1376.81 984.268,1377.19 987.277,1377.55 990.295,1377.88 993.32,1378.17 996.354,1378.44 999.395,1378.69 1002.44,1378.9 1005.5,1379.09 1008.57,1379.25 1011.64,1379.38 1014.72,1379.48 1017.81,1379.55 1020.9,1379.59 "/>
     <polygon id="_290967960" class="fil1" points="1158.27,1584 2294.15,2719.88 2291.76,2719.76 2289.45,2719.41 2287.21,2718.83 2285.07,2718.05 2283.03,2717.07 2281.1,2715.9 2279.31,2714.55 2277.65,2713.05 1141.77,1577.17 1143.43,1578.67 1145.22,1580.01 1147.15,1581.18 1149.19,1582.17 1151.33,1582.95 1153.57,1583.53 1155.88,1583.88 "/>
     <polygon id="_290968008" class="fil1" points="1181.6,1338.74 2317.48,2474.63 2317.48,2649.88 1181.6,1514 "/>
     <polygon id="_290967648" class="fil1" points="1256.08,1584 2391.97,2719.88 2294.15,2719.88 1158.27,1584 "/>
     <polygon id="_290967576" class="fil1" points="866.396,1338.74 2002.28,2474.63 1999.82,2473.24 1997.38,2471.84 1994.94,2470.41 1992.53,2468.96 1990.12,2467.49 1987.74,2466.01 1985.36,2464.5 1983,2462.97 1980.65,2461.42 1978.32,2459.86 1976,2458.27 1973.7,2456.66 1971.41,2455.04 1969.13,2453.39 1966.87,2451.73 1964.63,2450.04 1962.4,2448.34 1960.18,2446.62 1957.98,2444.88 1955.8,2443.12 1953.63,2441.35 1951.48,2439.55 1949.34,2437.74 1947.22,2435.91 1945.12,2434.06 1943.03,2432.19 1940.96,2430.3 805.075,1294.42 807.147,1296.31 809.235,1298.17 811.34,1300.02 813.461,1301.85 815.598,1303.67 817.75,1305.46 819.918,1307.24 822.102,1309 824.301,1310.74 826.515,1312.46 828.745,1314.16 830.99,1315.84 833.249,1317.51 835.524,1319.15 837.814,1320.78 840.119,1322.39 842.437,1323.97 844.77,1325.54 847.118,1327.09 849.479,1328.62 851.854,1330.12 854.244,1331.61 856.647,1333.08 859.064,1334.53 861.494,1335.95 863.938,1337.36 "/>
     <polygon id="_290968224" class="fil1" points="664.192,1250.53 1800.07,2386.41 1799.32,2390.49 1798.23,2394.26 1796.83,2397.71 1795.13,2400.85 1793.16,2403.69 1790.95,2406.22 1788.53,2408.46 1785.92,2410.4 1783.14,2412.05 1780.21,2413.41 1777.18,2414.49 1774.05,2415.28 1770.86,2415.79 1767.63,2416.04 1764.38,2416 1761.15,2415.7 1757.95,2415.14 1754.81,2414.31 1751.75,2413.23 1748.81,2411.89 1746,2410.3 1743.36,2408.46 1740.9,2406.38 605.019,1270.49 607.477,1272.58 610.123,1274.42 612.929,1276.01 615.871,1277.35 618.924,1278.43 622.065,1279.26 625.264,1279.82 628.5,1280.12 631.747,1280.15 634.979,1279.91 638.17,1279.4 641.297,1278.6 644.333,1277.53 647.254,1276.17 650.034,1274.52 652.649,1272.58 655.073,1270.34 657.279,1267.81 659.246,1264.97 660.945,1261.83 662.352,1258.37 663.443,1254.61 "/>
     <polygon id="_290968152" class="fil1" points="889.73,1584 2025.61,2719.88 1927.8,2719.88 791.914,1584 "/>
     <polygon id="_290968632" class="fil1" points="791.914,1584 1927.8,2719.88 1925.69,2719.78 1923.65,2719.46 1921.67,2718.96 1919.78,2718.26 1917.98,2717.4 1916.28,2716.37 1914.7,2715.18 778.818,1579.3 780.403,1580.48 782.101,1581.51 783.901,1582.38 785.792,1583.07 787.765,1583.58 789.81,1583.89 "/>
     <polygon id="_290968248" class="fil1" points="928.853,1365.41 2064.73,2501.29 2048.94,2696.55 913.064,1560.67 "/>
     <polygon id="_290968056" class="fil1" points="1276.67,1563.41 2412.55,2699.29 2412.45,2701.4 2412.14,2703.44 2411.63,2705.42 2410.94,2707.31 2410.07,2709.11 2409.04,2710.8 2407.85,2712.39 2406.52,2713.85 2405.06,2715.18 2403.48,2716.37 2401.78,2717.4 2399.98,2718.26 2398.09,2718.96 2396.11,2719.46 2394.07,2719.78 2391.97,2719.88 1256.08,1584 1258.19,1583.89 1260.23,1583.58 1262.21,1583.07 1264.1,1582.38 1265.9,1581.51 1267.6,1580.48 1269.18,1579.3 1270.64,1577.97 1271.97,1576.51 1273.16,1574.92 1274.19,1573.22 1275.06,1571.42 1275.75,1569.53 1276.26,1567.56 1276.57,1565.52 "/>
     <polygon id="_290968488" class="fil1" points="1270.64,1548.85 2406.52,2684.74 2407.85,2686.2 2409.04,2687.78 2410.07,2689.48 2410.94,2691.28 2411.63,2693.17 2412.14,2695.14 2412.45,2697.19 2412.55,2699.29 1276.67,1563.41 1276.57,1561.31 1276.26,1559.26 1275.75,1557.29 1275.06,1555.4 1274.19,1553.6 1273.16,1551.9 1271.97,1550.32 "/>
     <polygon id="_290968176" class="fil1" points="913.064,1560.67 2048.94,2696.55 2048.82,2698.93 2048.47,2701.25 2047.9,2703.49 2047.11,2705.63 2046.13,2707.67 2044.96,2709.59 2043.62,2711.39 2042.11,2713.05 2040.45,2714.55 2038.66,2715.9 2036.73,2717.07 2034.69,2718.05 2032.55,2718.83 2030.31,2719.41 2028,2719.76 2025.61,2719.88 889.73,1584 892.116,1583.88 894.432,1583.53 896.668,1582.95 898.813,1582.17 900.851,1581.18 902.775,1580.01 904.572,1578.67 906.229,1577.17 907.735,1575.51 909.079,1573.71 910.247,1571.79 911.229,1569.75 912.015,1567.61 912.59,1565.37 912.943,1563.05 "/>
     <polygon id="_290968536" class="fil1" points="1422.95,972.615 2558.83,2108.5 2558.73,2119.28 2558.67,2129.62 2558.66,2139.54 2558.7,2149.07 2558.8,2158.24 2558.95,2167.07 2559.15,2175.61 2559.41,2183.88 2559.73,2191.9 2560.11,2199.71 2560.56,2207.33 2561.07,2214.8 2561.66,2222.15 2562.31,2229.4 2563.03,2236.59 2563.83,2243.74 2564.71,2250.88 2565.66,2258.05 2566.7,2265.26 2567.82,2272.56 2569.02,2279.97 2570.31,2287.52 2571.69,2295.23 2573.16,2303.15 2574.72,2311.3 2576.37,2319.7 2578.13,2328.39 2579.98,2337.4 2581.94,2346.75 2584,2356.48 2586.16,2366.61 2588.43,2377.18 1452.55,1241.29 1450.28,1230.73 1448.12,1220.59 1446.06,1210.87 1444.1,1201.51 1442.25,1192.51 1440.49,1183.82 1438.84,1175.41 1437.27,1167.27 1435.8,1159.35 1434.43,1151.63 1433.14,1144.09 1431.94,1136.68 1430.82,1129.38 1429.78,1122.16 1428.83,1115 1427.95,1107.86 1427.15,1100.71 1426.43,1093.52 1425.78,1086.27 1425.19,1078.92 1424.68,1071.45 1424.23,1063.82 1423.85,1056.01 1423.53,1047.99 1423.27,1039.73 1423.06,1031.19 1422.92,1022.35 1422.82,1013.18 1422.78,1003.66 1422.79,993.738 1422.85,983.401 "/>
     <polygon id="_290968608" class="fil1" points="1452.55,1241.29 2588.43,2377.18 2588.79,2381.31 2588.73,2385.23 2588.28,2388.93 2587.47,2392.41 2586.33,2395.66 2584.87,2398.69 2583.12,2401.49 2581.11,2404.05 2578.86,2406.38 2576.4,2408.46 2573.76,2410.3 2570.95,2411.89 2568.01,2413.23 2564.96,2414.31 2561.82,2415.14 2558.62,2415.7 2555.38,2416 2552.14,2416.04 2548.9,2415.79 2545.71,2415.28 2542.58,2414.49 2539.55,2413.41 2536.63,2412.05 2533.85,2410.4 2531.23,2408.46 2528.81,2406.22 1392.93,1270.34 1395.35,1272.58 1397.97,1274.52 1400.75,1276.17 1403.67,1277.53 1406.7,1278.6 1409.83,1279.4 1413.02,1279.91 1416.25,1280.15 1419.5,1280.12 1422.74,1279.82 1425.94,1279.26 1429.08,1278.43 1432.13,1277.35 1435.07,1276.01 1437.88,1274.42 1440.52,1272.58 1442.98,1270.49 1445.23,1268.17 1447.24,1265.61 1448.98,1262.81 1450.44,1259.78 1451.59,1256.53 1452.4,1253.05 1452.85,1249.35 1452.91,1245.43 "/>
    </g>
    <path id="_289346960" class="fil1" d="M1195.07 534.863c43.7823,43.7823 70.8627,104.267 70.8627,171.072 0,21.587 -2.86418,42.5941 -8.23347,62.6599 -5.51221,20.5925 -13.7102,40.1575 -24.2032,58.2981l0.0484252 0.0271654c-4.37599,7.56379 -12.3484,11.7496 -20.5051,11.6504l-95.7072 0 0 43.5048 166.752 0c8.14371,-0.0862205 16.0973,4.09725 20.4662,11.6504l-0.0472441 0.0283465c2.62677,4.54134 5.14607,9.15001 7.55434,13.8225 97.8107,0.0472441 111.567,4.52363 110.888,65.0386 -1.31693,117.542 4.79528,153.541 29.6044,268.68 6.0756,45.2103 -62.6693,54.4477 -68.7438,9.23623 -4.98307,-74.2713 -8.18741,-150.566 -8.18741,-223.839 0,-62.7343 9.31536,-60.0886 -39.9414,-59.3174 0.415748,1.47047 0.822048,2.94449 1.21772,4.42323 7.18347,26.8382 11.0138,54.9674 11.0138,83.8997 0,89.4414 -36.2563,170.42 -94.8733,229.037 -21.124,21.124 -45.1524,39.3437 -71.4343,54.0095l0 175.257 74.4816 28.8225c11.3705,0 20.589,9.21851 20.589,20.5878 0,11.3705 -9.21851,20.589 -20.589,20.589l-97.8154 0c-12.8858,0 -23.3339,-10.4469 -23.3339,-23.3339l-15.789 -195.259c-30.0851,9.2315 -62.0363,14.2004 -95.1461,14.2004 -33.111,0 -65.0611,-4.9689 -95.1473,-14.2016l-15.789 195.26c0,12.887 -10.448,23.3339 -23.3339,23.3339l-97.8154 0c-11.3705,0 -20.589,-9.21851 -20.589,-20.589 0,-11.3693 9.21851,-20.5878 20.589,-20.5878l74.4816 -28.8225 0 -175.257c-26.2819,-14.6658 -50.3091,-32.8855 -71.4331,-54.0095 -58.617,-58.617 -94.8733,-139.596 -94.8733,-229.037 0,-28.9323 3.83032,-57.0615 11.0138,-83.8997 0.39567,-1.47874 0.801969,-2.95276 1.21772,-4.42323 -49.2567,-0.77126 -39.9402,-3.41693 -39.9402,59.3174 0,73.2733 -3.20433,149.568 -8.18859,223.839 -6.07323,45.2115 -74.8193,35.974 -68.7426,-9.23623 24.8091,-115.139 30.9213,-151.138 29.6044,-268.68 -0.679134,-60.515 13.076,-64.9914 110.887,-65.0386 2.13898,-4.1504 4.36536,-8.25001 6.67678,-12.2965 3.77126,-7.813 11.7697,-13.2047 21.0272,-13.2047l167.021 0 0 -43.5048 -96.0154 0c-9.26339,0 -17.2654,-5.39882 -21.0331,-13.2201 -10.0701,-17.7047 -17.9622,-36.7453 -23.3185,-56.7556 -5.3693,-20.0658 -8.23347,-41.0729 -8.23347,-62.6599 0,-66.8056 27.0803,-127.29 70.8627,-171.072 43.7823,-43.7811 104.267,-70.8627 171.072,-70.8627 0.220866,0 0.441733,0 0.662599,0.0011811 66.5434,0.178347 126.773,27.2256 170.41,70.8615z"/>
   </g>
  </g>
  <path class="fil2" d="M1024 -0.0011811c565.539,0 1024,458.462 1024,1024 0,565.539 -458.462,1024 -1024,1024 -565.539,0 -1024,-458.462 -1024,-1024 0,-565.539 458.462,-1024 1024,-1024z"/>
  <path class="fil3" d="M1117.33 826.02c0,-12.8858 -41.7898,-23.3339 -93.3343,-23.3339 -51.5445,0 -93.3343,10.448 -93.3343,23.3339l0 79.389c0,12.887 41.7898,23.3339 93.3343,23.3339 51.5445,0 93.3343,-10.4469 93.3343,-23.3339l0 -79.389z"/>
  <path class="fil4" d="M1024 464c66.8056,0 127.29,27.0815 171.072,70.8627 43.7823,43.7823 70.8627,104.267 70.8627,171.072 0,21.587 -2.86418,42.5941 -8.23347,62.6599 -5.51221,20.5925 -13.7102,40.1575 -24.2032,58.2981l0.0484252 0.0271654c-4.37599,7.56379 -12.3484,11.7496 -20.5051,11.6504l-378.391 0c-9.26339,0 -17.2654,-5.39882 -21.0331,-13.2201 -10.0701,-17.7047 -17.9622,-36.7453 -23.3185,-56.7556 -5.3693,-20.0658 -8.23347,-41.0729 -8.23347,-62.6599 0,-66.8056 27.0803,-127.29 70.8627,-171.072 43.7823,-43.7811 104.267,-70.8627 171.072,-70.8627z"/>
  <path class="fil4" d="M1024 838.57l-189.35 0c-9.26339,0 -17.2654,-5.39882 -21.0331,-13.2201 -10.0701,-17.7047 -17.9622,-36.7453 -23.3185,-56.7556 -5.3693,-20.0658 -8.23347,-41.0729 -8.23347,-62.6599 0,-66.8056 27.0803,-127.29 70.8627,-171.072 43.7823,-43.7811 104.267,-70.8627 171.072,-70.8627l0 374.57z"/>
  <path class="fil5" d="M1024 464l0.662599 0.00354331c66.5422,0.178347 126.773,27.2221 170.41,70.8591 43.7823,43.7823 70.8627,104.267 70.8627,171.072 0,21.587 -2.86418,42.5941 -8.23347,62.6599 -5.51221,20.5925 -13.7102,40.1575 -24.2032,58.2981l0.0484252 0.0271654c-4.37599,7.56379 -12.3484,11.7496 -20.5051,11.6504l-188.843 0 -0.198425 0 0 -374.57z"/>
  <path class="fil6" d="M1064.04 624.802c0,12.887 10.448,23.3339 23.3339,23.3339 12.887,0 23.3339,-10.4469 23.3339,-23.3339l0 -17.1815c0,-12.887 -10.4469,-23.3339 -23.3339,-23.3339 -12.8858,0 -23.3339,10.4469 -23.3339,23.3339l0 17.1815z"/>
  <path class="fil6" d="M1111.57 720.667c-19.7705,26.8973 -51.6307,44.3587 -87.5729,44.3587 -35.9422,0 -67.8024,-17.4614 -87.5729,-44.3587l175.146 0z"/>
  <path class="fil6" d="M937.296 624.802c0,12.887 10.4469,23.3339 23.3339,23.3339 12.8858,0 23.3339,-10.4469 23.3339,-23.3339l0 -17.1815c0,-12.887 -10.448,-23.3339 -23.3339,-23.3339 -12.887,0 -23.3339,10.4469 -23.3339,23.3339l0 17.1815z"/>
  <path class="fil7" d="M936.396 1272.11c0,-12.8858 -10.4469,-23.3339 -23.3339,-23.3339 -12.8858,0 -46.6666,10.448 -46.6666,23.3339l0 241.889 -74.4816 28.8225c-11.3705,0 -20.589,9.21851 -20.589,20.5878 0,11.3705 9.21851,20.589 20.589,20.589l97.8154 0c12.8858,0 23.3339,-10.4469 23.3339,-23.3339l23.3327 -288.554z"/>
  <path class="fil7" d="M1111.6 1272.11c0,-12.8858 10.4469,-23.3339 23.3339,-23.3339 12.887,0 46.6666,10.448 46.6666,23.3339l0 241.889 74.4816 28.8225c11.3705,0 20.589,9.21851 20.589,20.5878 0,11.3705 -9.21851,20.589 -20.589,20.589l-97.8154 0c-12.8858,0 -23.3339,-10.4469 -23.3339,-23.3339l-23.3327 -288.554z"/>
  <path class="fil7" d="M595.45 1241.29c-6.07678,45.2103 62.6693,54.4477 68.7426,9.23623 4.98426,-74.2713 8.18859,-150.566 8.18859,-223.839 0,-67.9264 -10.9228,-59.2028 53.413,-59.2028 12.887,0 23.3339,-10.4469 23.3339,-23.3339 0,-12.8858 1.32638,-36.5788 -11.5595,-36.5788 -99.2859,0 -113.197,4.18937 -112.514,65.0386 1.31693,117.542 -4.79528,153.541 -29.6044,268.68z"/>
  <path class="fil7" d="M1452.55 1241.29c6.0756,45.2103 -62.6693,54.4477 -68.7438,9.23623 -4.98307,-74.2713 -8.18741,-150.566 -8.18741,-223.839 0,-67.9264 10.9217,-59.2028 -53.413,-59.2028 -12.887,0 -23.3339,-10.4469 -23.3339,-23.3339 0,-12.8858 -1.32638,-36.5788 11.5595,-36.5788 99.2847,0 113.197,4.18937 112.514,65.0386 -1.31693,117.542 4.79528,153.541 29.6044,268.68z"/>
  <path class="fil8" d="M1253.04 1284.73c-58.617,58.617 -139.596,94.8733 -229.037,94.8733 -89.4414,0 -170.42,-36.2563 -229.037,-94.8733 -58.617,-58.617 -94.8733,-139.596 -94.8733,-229.037 0,-28.9323 3.83032,-57.0615 11.0138,-83.8997 7.22835,-27.0095 17.8996,-52.6807 31.5142,-76.5178 3.77126,-7.813 11.7697,-13.2047 21.0272,-13.2047l520.441 0c8.14371,-0.0862205 16.0973,4.09725 20.4662,11.6504l-0.0472441 0.0283465c14.0351,24.2658 25.0087,50.4567 32.3918,78.0438 7.18347,26.8382 11.0138,54.9674 11.0138,83.8997 0,89.4414 -36.2563,170.42 -94.8733,229.037z"/>
  <path class="fil7" d="M734.813 909.786c2.4815,-4.9063 5.08465,-9.74292 7.80473,-14.5063 3.77126,-7.813 11.7697,-13.2047 21.0272,-13.2047l520.441 0c8.14371,-0.0862205 16.0973,4.09725 20.4662,11.6504l-0.0472441 0.0283465c3.04016,5.25591 5.93623,10.6016 8.68347,16.0323l-578.376 0z"/>
  <path class="fil9" d="M1036.73 1091.24c0,14.4083 10.448,26.0894 23.3339,26.0894 12.887,0 23.3339,-11.6811 23.3339,-26.0894l0 -82.8201c0,-14.4083 -10.4469,-26.0894 -23.3339,-26.0894 -12.8858,0 -23.3339,11.6811 -23.3339,26.0894l0 82.8201z"/>
  <path class="fil9" d="M964.596 1091.24c0,14.4083 10.448,26.0894 23.3339,26.0894 12.887,0 23.3339,-11.6811 23.3339,-26.0894l0 -82.8201c0,-14.4083 -10.4469,-26.0894 -23.3339,-26.0894 -12.8858,0 -23.3339,11.6811 -23.3339,26.0894l0 82.8201z"/>
  <path class="fil10" d="M1108.87 1091.24c0,14.4083 10.448,26.0894 23.3339,26.0894 12.887,0 23.3339,-11.6811 23.3339,-26.0894l0 -82.8201c0,-14.4083 -10.4469,-26.0894 -23.3339,-26.0894 -12.8858,0 -23.3339,11.6811 -23.3339,26.0894l0 82.8201z"/>
  <path class="fil10" d="M892.458 1091.24c0,14.4083 10.4469,26.0894 23.3339,26.0894 12.8858,0 23.3339,-11.6811 23.3339,-26.0894l0 -82.8201c0,-14.4083 -10.448,-26.0894 -23.3339,-26.0894 -12.887,0 -23.3339,11.6811 -23.3339,26.0894l0 82.8201z"/>
  <rect class="fil11" x="819.378" y="1146.31" width="409.246" height="96.6151"/>
  <rect class="fil12" x="848.773" y="1166.82" width="18.685" height="55.5986"/>
  <rect class="fil13" x="890.244" y="1166.82" width="18.685" height="55.5986"/>
  <rect class="fil14" x="931.715" y="1166.82" width="18.685" height="55.5986"/>
  <rect class="fil15" x="973.186" y="1166.82" width="18.685" height="55.5986"/>
  <rect class="fil16" x="1014.66" y="1166.82" width="18.685" height="55.5986"/>
  <rect class="fil17" x="1056.13" y="1166.82" width="18.685" height="55.5986"/>
  <rect class="fil18" x="1097.6" y="1166.82" width="18.685" height="55.5986"/>
  <rect class="fil19" x="1139.07" y="1166.82" width="18.685" height="55.5986"/>
  <rect class="fil6" x="1180.54" y="1166.82" width="18.685" height="55.5986"/>
 </g>
</svg>
